Simulation
nRows=30
nColumns=15
endheader
time  TH_x TH_y TH_z SC_y  SC_z  SC_x  AC_y  AC_z  AC_x  GH_y  GH_z  GH_yy  EL_x  PS_y
1.4450000000000003  0.000000  0.000000  0.000000  -65.47953826322615  13.862963331574539  60.00000058051125  55.85071672704637  -10.740075973975948  -0.8501432708892059  3.9248832386774666  43.72951846875747  -5.709703156170963  17.192590475508517  120.000000
1.4739000000000002  0.000000  0.000000  0.000000  -65.71585383614465  13.864476583771115  60.000000564561645  56.05218515247802  -10.478407554773938  -0.3795282199161031  3.8702613176489895  43.81401966136402  -5.666915027267188  17.130497980760534  120.000000
1.5028000000000004  0.000000  0.000000  0.000000  -65.85283595750828  13.853522550084548  60.00000057349292  56.178342572320496  -10.320204763145796  -0.10580468324818094  3.8757085342476993  43.82262670711416  -5.726468120036524  17.08175566180795  120.000000
1.5317000000000003  0.000000  0.000000  0.000000  -65.89750215438097  13.830428741738062  60.00000055984899  56.23084287705852  -10.266739214514699  -0.028675105561235186  3.9504409980190265  43.73911806277655  -5.907791879434781  17.042233630773357  120.000000
1.5606000000000002  0.000000  0.000000  0.000000  -65.85496191588442  13.798438258866573  60.0000005754176  56.20767542877041  -10.321000038620424  -0.1489408277540211  4.100664582989161  43.55172733678362  -6.215636127106949  17.009229671534616  120.000000
1.5895000000000004  0.000000  0.000000  0.000000  -65.7278015632276  13.763613414773047  60.000000569564754  56.10313935587195  -10.487227362423502  -0.46817991098146294  4.329601194964856  43.25439079775762  -6.6398643507300354  16.982438579158742  120.000000
1.6184000000000003  0.000000  0.000000  0.000000  -65.516316635212  13.733510382393028  60.000000579085544  55.90931475521899  -10.769623801207224  -0.9879050951263774  4.636975606830437  42.84646737320983  -7.159185935491073  16.963795517633887  120.000000
1.6473000000000002  0.000000  0.000000  0.000000  -65.21963566402614  13.715076016113741  60.00000057827821  55.61770765436423  -11.17085094646488  -1.7080966511641202  5.018777454293805  42.331670123602805  -7.74653025986341  16.956776052842905  120.000000
1.6762000000000004  0.000000  0.000000  0.000000  -64.83673075964226  13.712695339690164  60.00000058068271  55.22218157574389  -11.690123448814084  -2.6257573791216826  5.467210111377766  41.7170030455975  -8.37529980992879  16.964850714281862  120.000000
1.7051000000000003  0.000000  0.000000  0.000000  -64.36738839957191  13.726352277902059  60.000000582120535  54.72064988417081  -12.321636948687177  -3.7334819703318973  5.971593705658187  41.011922006557946  -9.023902779630397  16.99027821281151  120.000000
1.7340000000000004  0.000000  0.000000  0.000000  -63.81305331918015  13.750918311653292  59.999478246414334  54.116485748499386  -13.053677752558794  -5.018854587120563  6.519576571017506  40.22783410949996  -9.678311930921863  17.033116654713414  120.000000
1.7629000000000004  0.000000  0.000000  0.000000  -63.17735147220973  13.77604624182353  60.00000059347244  53.418182301760396  -13.869991068338837  -6.4662474726456916  7.098291613641907  39.376117311701705  -10.331230020496141  17.090374917453197  120.000000
1.7918000000000003  0.000000  0.000000  0.000000  -62.46600089356212  13.788169310337986  60.00000057923552  52.638506017373906  -14.749579555632316  -8.056368741857087  7.695913757012209  38.46912384408881  -10.980031123961513  17.156539240937192  120.000000
1.8207000000000004  0.000000  0.000000  0.000000  -61.68627790332033  13.774909382319445  59.98148979904985  51.79267727432601  -15.664588733200118  -9.761883247107486  8.303898836434806  37.5249119677311  -11.624101661703161  17.225482889865777  120.000000
1.8496000000000004  0.000000  0.000000  0.000000  -60.84779538351231  13.725502770830179  59.917137843581074  50.8979532047222  -16.585416889977854  -11.548777622382335  8.915575548095681  36.564484606454265  -12.263143706145257  17.290640229509503  120.000000
1.8785000000000003  0.000000  0.000000  0.000000  -59.964327503211  13.629956270792158  59.78544152384435  49.974024656970386  -17.48763309626098  -13.380453359937702  9.523639154174246  35.60575327071967  -12.896242975741625  17.34468495946453  120.000000
1.9074000000000004  0.000000  0.000000  0.000000  -59.05470914643255  13.479829703796494  59.57390821370472  49.04312693081147  -18.35348174359465  -15.21826642282314  10.11912340983626  34.66184399237984  -13.5223945348124  17.38086762205673  120.000000
1.9363000000000004  0.000000  0.000000  0.000000  -58.141702155379846  13.2688810576055  59.27813549783507  48.12843648053701  -19.17037150174673  -17.0226512850055  10.691441104738576  33.74031228287752  -14.14057801759872  17.394196002768986  120.000000
1.9652000000000003  0.000000  0.000000  0.000000  -57.249717938684974  12.994054780603058  58.90007098366397  47.25240349360722  -19.928806954351685  -18.755863302693964  11.229331820336096  32.84231604357363  -14.749068905485451  17.382206046214264  120.000000
1.9941000000000004  0.000000  0.000000  0.000000  -56.40210556425154  12.656301440761467  58.44595492960741  46.43393491299309  -20.620178253604077  -20.385029600895244  11.723171489135026  31.962645685029248  -15.343146703464795  17.345207244452048  120.000000
2.0230000000000006  0.000000  0.000000  0.000000  -55.61777446327982  12.261529100233977  57.923845169105604  45.68587090340417  -21.235095633999858  -21.885070440676618  12.167001101363233  31.09006273137713  -15.913229734602849  17.28575653148539  120.000000
2.0519000000000003  0.000000  0.000000  0.000000  -54.909529140111644  11.820160851645007  57.3413475615576  45.014460784615025  -21.763322309525762  -23.240590005612596  12.560384217948515  30.208256290642346  -16.444662031961247  17.208013018055382  120.000000
2.0808000000000004  0.000000  0.000000  0.000000  -54.2829704365343  11.345862709962924  56.70447031753735  44.419972084983634  -22.194789292061706  -24.445389664761333  12.908365845157341  29.29715779776588  -16.920763769955155  17.11650666738567  120.000000
2.1097000000000006  0.000000  0.000000  0.000000  -53.736886359635946  10.85430833914182  56.01794617809578  43.89829862824273  -22.521968527720006  -25.4996689299633  13.220608106760674  28.335654158712966  -17.327479897219156  17.01495720826143  120.000000
2.1386000000000003  0.000000  0.000000  0.000000  -53.26512268449444  10.36223763415312  55.286249567763264  43.443376025051215  -22.743534998914157  -26.405805691483568  13.509567111681466  27.305189813726056  -17.65856677961445  16.905495296246972  120.000000
2.1675000000000004  0.000000  0.000000  0.000000  -52.85949549212046  9.886793370930706  54.514521352770096  43.04869907817544  -22.868255653381297  -27.16487202994514  13.78819537552003  26.19372983976416  -17.918973108327545  16.788003197962443  120.000000
2.1964000000000006  0.000000  0.000000  0.000000  -52.513826453647376  9.444971361037357  53.7091855040037  42.708194848192676  -22.91831237234018  -27.77460064080406  14.067455478754109  24.999510680323677  -18.125366553212093  16.659950521490785  120.000000
2.2253000000000003  0.000000  0.000000  0.000000  -52.22347024704833  9.050661598040461  52.87363389834254  42.4176131627308  -22.918312373268076  -28.229553484368708  14.35734619062325  23.728723168156932  -18.301704527426857  16.51746878971927  120.000000
2.2542000000000004  0.000000  0.000000  0.000000  -51.978567613019635  8.707548173709842  51.99786644694889  42.17945845340336  -22.869247341285902  -28.522800349031456  14.672508837049914  22.385778885954974  -18.471134592407733  16.358330670185993  120.000000
2.2831000000000006  0.000000  0.000000  0.000000  -51.762581878802195  8.408580324456649  51.05727135158395  42.00121048763465  -22.745393038428443  -28.647890293510173  15.033600244788534  20.972207469235986  -18.648351867105088  16.182805501062006  120.000000
